<?xml version="1.0" encoding="UTF-8"?>
<svg id="Layer_1" xmlns="http://www.w3.org/2000/svg" version="1.1" viewBox="0 0 1200 600">
  <!-- Generator: Adobe Illustrator 29.1.0, SVG Export Plug-In . SVG Version: 2.1.0 Build 142)  -->
  <defs>
    <style>
      .st0, .st1 {
        fill: #fff;
      }

      .st0, .st2, .st3 {
        isolation: isolate;
      }

      .st0, .st3 {
        font-family: ArialMT, Arial;
        font-size: 16px;
      }

      .st4 {
        fill: #28a745;
      }

      .st5 {
        fill: #ffc107;
      }

      .st6 {
        fill: #f5f6f8;
      }

      .st2 {
        font-family: Arial-BoldMT, Arial;
        font-size: 28px;
        font-weight: 700;
      }

      .st2, .st7, .st3 {
        fill: #2c3e50;
      }

      .st8 {
        fill: #dc3545;
      }
    </style>
  </defs>
  <rect class="st6" width="1200" height="600"/>
  <rect class="st1" x="40" y="20" width="1120" height="80" rx="8" ry="8"/>
  <text class="st2" transform="translate(60 65)"><tspan x="0" y="0">Admin</tspan></text>
  <rect class="st8" x="1020" y="35" width="100" height="40" rx="6" ry="6"/>
  <text class="st0" transform="translate(1040 60)"><tspan x="0" y="0">Logout</tspan></text>
  <rect class="st7" x="876.5" y="34.8" width="96.5" height="40.4" rx="6" ry="6"/>
  <text class="st0" transform="translate(891.5 58.2)"><tspan x="0" y="0">Add User</tspan></text>
  <rect class="st1" x="40" y="185" width="1120" height="395" rx="8" ry="8"/>
  <rect class="st7" x="40" y="185" width="1120" height="60" rx="8" ry="8"/>
  <g>
    <text class="st0" transform="translate(60 222)"><tspan x="0" y="0">Username</tspan></text>
    <text class="st0" transform="translate(360 222)"><tspan x="0" y="0">Role</tspan></text>
    <text class="st0" transform="translate(660 222)"><tspan x="0" y="0">Status</tspan></text>
    <text class="st0" transform="translate(960 222)"><tspan x="0" y="0">Actions</tspan></text>
  </g>
  <g>
    <text class="st3" transform="translate(60 282)"><tspan x="0" y="0">sales1</tspan></text>
    <text class="st3" transform="translate(360 282)"><tspan x="0" y="0">Sales</tspan></text>
    <path class="st8" d="M675,262h50c8.3,0,15,6.7,15,15h0c0,8.3-6.7,15-15,15h-50c-8.3,0-15-6.7-15-15h0c0-8.3,6.7-15,15-15Z"/>
    <text class="st0" transform="translate(672.4 282)"><tspan x="0" y="0">Blocked</tspan></text>
    <rect class="st4" x="960" y="262" width="80" height="30" rx="6" ry="6"/>
    <text class="st0" transform="translate(973 282)"><tspan x="0" y="0">Activate</tspan></text>
    <rect class="st8" x="1050" y="262" width="80" height="30" rx="6" ry="6"/>
    <text class="st0" transform="translate(1068 282)"><tspan x="0" y="0">Delete</tspan></text>
    <text class="st3" transform="translate(60 342)"><tspan x="0" y="0">manager1</tspan></text>
    <text class="st3" transform="translate(360 342)"><tspan x="0" y="0">Manager</tspan></text>
    <path class="st4" d="M675,322h50c8.3,0,15,6.7,15,15h0c0,8.3-6.7,15-15,15h-50c-8.3,0-15-6.7-15-15h0c0-8.3,6.7-15,15-15Z"/>
    <text class="st0" transform="translate(679 342)"><tspan x="0" y="0">Active</tspan></text>
    <rect class="st5" x="960" y="322" width="80" height="30" rx="6" ry="6"/>
    <text class="st3" transform="translate(980 342)"><tspan x="0" y="0">Block</tspan></text>
    <rect class="st8" x="1050" y="322" width="80" height="30" rx="6" ry="6"/>
    <text class="st0" transform="translate(1068 342)"><tspan x="0" y="0">Delete</tspan></text>
    <text class="st3" transform="translate(60 402)"><tspan x="0" y="0">ahmad</tspan></text>
    <text class="st3" transform="translate(360 402)"><tspan x="0" y="0">Sales</tspan></text>
    <path class="st8" d="M675,382h50c8.3,0,15,6.7,15,15h0c0,8.3-6.7,15-15,15h-50c-8.3,0-15-6.7-15-15h0c0-8.3,6.7-15,15-15Z"/>
    <text class="st0" transform="translate(672 402.2)"><tspan x="0" y="0">Blocked</tspan></text>
    <rect class="st4" x="960" y="382" width="80" height="30" rx="6" ry="6"/>
    <text class="st0" transform="translate(973 402)"><tspan x="0" y="0">Activate</tspan></text>
    <rect class="st8" x="1050" y="382" width="80" height="30" rx="6" ry="6"/>
    <text class="st0" transform="translate(1068 402)"><tspan x="0" y="0">Delete</tspan></text>
    <text/>
  </g>
  <text/>
</svg>